<svg width="510" height="510" viewBox="0 0 510 510" fill="none" xmlns="http://www.w3.org/2000/svg">
<g clip-path="url(#clip0_122_3)">
<rect width="510" height="510" rx="8" fill="#0058A3"/>
<path d="M-5 361.073L3.66226 361.238C12.3245 361.32 29.649 361.649 46.9736 354.738C64.2981 347.909 81.6226 333.921 98.9471 331.864C116.272 329.807 133.596 339.681 150.921 341.573C168.245 343.548 185.57 337.459 202.894 339.269C220.219 341.079 237.543 350.624 254.868 354.491C272.192 358.358 289.517 356.383 306.841 349.307C324.166 342.149 341.49 329.807 358.815 330.877C376.139 332.029 393.464 346.51 410.788 355.972C428.113 365.434 445.437 369.877 462.762 369.137C480.087 368.478 497.411 362.719 506.073 359.839L514.736 356.959V509.999H506.073C497.411 509.999 480.087 509.999 462.762 509.999C445.437 509.999 428.113 509.999 410.788 509.999C393.464 509.999 376.139 509.999 358.815 509.999C341.49 509.999 324.166 509.999 306.841 509.999C289.517 509.999 272.192 509.999 254.868 509.999C237.543 509.999 220.219 509.999 202.894 509.999C185.57 509.999 168.245 509.999 150.921 509.999C133.596 509.999 116.272 509.999 98.9471 509.999C81.6226 509.999 64.2981 509.999 46.9736 509.999C29.649 509.999 12.3245 509.999 3.66226 509.999H-5V361.073Z" fill="#0058A3"/>
<path d="M-5 339.681L3.66226 340.504C12.3245 341.327 29.649 342.972 46.9736 347.745C64.2981 352.599 81.6226 360.498 98.9471 357.783C116.272 355.068 133.596 341.574 150.921 345.029C168.245 348.485 185.57 368.726 202.894 368.644C220.219 368.479 237.543 347.909 254.868 340.504C272.192 333.099 289.517 338.858 306.841 338.2C324.166 337.46 341.49 330.384 358.815 326.928C376.139 323.472 393.464 323.801 410.788 335.156C428.113 346.51 445.437 369.055 462.762 375.308C480.087 381.644 497.411 371.77 506.073 366.834L514.736 361.897V510H506.073C497.411 510 480.087 510 462.762 510C445.437 510 428.113 510 410.788 510C393.464 510 376.139 510 358.815 510C341.49 510 324.166 510 306.841 510C289.517 510 272.192 510 254.868 510C237.543 510 220.219 510 202.894 510C185.57 510 168.245 510 150.921 510C133.596 510 116.272 510 98.9471 510C81.6226 510 64.2981 510 46.9736 510C29.649 510 12.3245 510 3.66226 510H-5V339.681Z" fill="#2067B0"/>
<path d="M-5 365.188L3.66226 368.89C12.3245 372.593 29.649 379.998 46.9736 385.099C64.2981 390.118 81.6226 392.916 98.9471 395.796C116.272 398.675 133.596 401.637 150.921 394.808C168.245 387.979 185.57 371.194 202.894 362.884C220.219 354.491 237.543 354.491 254.868 358.194C272.192 361.896 289.517 369.302 306.841 372.84C324.166 376.46 341.49 376.131 358.815 372.181C376.139 368.232 393.464 360.498 410.788 361.074C428.113 361.65 445.437 370.371 462.762 372.181C480.087 373.992 497.411 368.726 506.073 366.175L514.736 363.542V510H506.073C497.411 510 480.087 510 462.762 510C445.437 510 428.113 510 410.788 510C393.464 510 376.139 510 358.815 510C341.49 510 324.166 510 306.841 510C289.517 510 272.192 510 254.868 510C237.543 510 220.219 510 202.894 510C185.57 510 168.245 510 150.921 510C133.596 510 116.272 510 98.9471 510C81.6226 510 64.2981 510 46.9736 510C29.649 510 12.3245 510 3.66226 510H-5V365.188Z" fill="#3476BC"/>
<path d="M-5 381.644L3.66226 386.827C12.3245 392.093 29.649 402.46 46.9736 401.391C64.2981 400.321 81.6226 387.65 98.9471 387.979C116.272 388.226 133.596 401.391 150.921 403.283C168.245 405.258 185.57 395.878 202.894 392.175C220.219 388.473 237.543 390.448 254.868 389.707C272.192 389.049 289.517 385.758 306.841 382.302C324.166 378.928 341.49 375.308 358.815 381.479C376.139 387.65 393.464 403.612 410.788 408.96C428.113 414.309 445.437 409.043 462.762 406.163C480.087 403.283 497.411 402.789 506.073 402.46L514.736 402.214V510H506.073C497.411 510 480.087 510 462.762 510C445.437 510 428.113 510 410.788 510C393.464 510 376.139 510 358.815 510C341.49 510 324.166 510 306.841 510C289.517 510 272.192 510 254.868 510C237.543 510 220.219 510 202.894 510C185.57 510 168.245 510 150.921 510C133.596 510 116.272 510 98.9471 510C81.6226 510 64.2981 510 46.9736 510C29.649 510 12.3245 510 3.66226 510H-5V381.644Z" fill="#4685C9"/>
<path d="M-5 417.847L3.66226 417.682C12.3245 417.6 29.649 417.271 46.9736 417.847C64.2981 418.423 81.6226 419.739 98.9471 420.562C116.272 421.385 133.596 421.714 150.921 422.619C168.245 423.607 185.57 425.252 202.894 423.031C220.219 420.891 237.543 414.803 254.868 416.86C272.192 418.917 289.517 429.119 306.841 429.777C324.166 430.436 341.49 421.714 358.815 421.138C376.139 420.562 393.464 428.296 410.788 428.708C428.113 429.119 445.437 422.208 462.762 422.372C480.087 422.537 497.411 429.613 506.073 433.233L514.736 436.771V510H506.073C497.411 510 480.087 510 462.762 510C445.437 510 428.113 510 410.788 510C393.464 510 376.139 510 358.815 510C341.49 510 324.166 510 306.841 510C289.517 510 272.192 510 254.868 510C237.543 510 220.219 510 202.894 510C185.57 510 168.245 510 150.921 510C133.596 510 116.272 510 98.9471 510C81.6226 510 64.2981 510 46.9736 510C29.649 510 12.3245 510 3.66226 510H-5V417.847Z" fill="#5695D5"/>
<path d="M-5 452.404L3.66226 453.227C12.3245 454.05 29.649 455.695 46.9736 455.119C64.2981 454.626 81.6226 451.828 98.9471 448.701C116.272 445.575 133.596 441.955 150.921 439.404C168.245 436.771 185.57 435.125 202.894 432.904C220.219 430.765 237.543 427.967 254.868 428.79C272.192 429.613 289.517 434.056 306.841 435.948C324.166 437.841 341.49 437.347 358.815 440.885C376.139 444.423 393.464 452.157 410.788 452.651C428.113 453.227 445.437 446.645 462.762 441.872C480.087 437.018 497.411 434.056 506.073 432.492L514.736 431.011V510H506.073C497.411 510 480.087 510 462.762 510C445.437 510 428.113 510 410.788 510C393.464 510 376.139 510 358.815 510C341.49 510 324.166 510 306.841 510C289.517 510 272.192 510 254.868 510C237.543 510 220.219 510 202.894 510C185.57 510 168.245 510 150.921 510C133.596 510 116.272 510 98.9471 510C81.6226 510 64.2981 510 46.9736 510C29.649 510 12.3245 510 3.66226 510H-5V452.404Z" fill="#67A5E1"/>
<path d="M-5 458.986L3.66226 457.587C12.3245 456.271 29.649 453.473 46.9736 451.581C64.2981 449.689 81.6226 448.537 98.9471 452.239C116.272 455.942 133.596 464.499 150.921 466.638C168.245 468.86 185.57 464.746 202.894 464.993C220.219 465.322 237.543 469.929 254.868 471.328C272.192 472.727 289.517 470.752 306.841 467.379C324.166 463.923 341.49 458.986 358.815 455.695C376.139 452.404 393.464 450.758 410.788 449.359C428.113 448.043 445.437 446.891 462.762 448.29C480.087 449.689 497.411 453.473 506.073 455.448L514.736 457.341V509.999H506.073C497.411 509.999 480.087 509.999 462.762 509.999C445.437 509.999 428.113 509.999 410.788 509.999C393.464 509.999 376.139 509.999 358.815 509.999C341.49 509.999 324.166 509.999 306.841 509.999C289.517 509.999 272.192 509.999 254.868 509.999C237.543 509.999 220.219 509.999 202.894 509.999C185.57 509.999 168.245 509.999 150.921 509.999C133.596 509.999 116.272 509.999 98.9471 509.999C81.6226 509.999 64.2981 509.999 46.9736 509.999C29.649 509.999 12.3245 509.999 3.66226 509.999H-5V458.986Z" fill="#78B5EE"/>
<path d="M-5 489.43L3.66226 487.537C12.3245 485.563 29.649 481.778 46.9736 482.272C64.2981 482.848 81.6226 487.784 98.9471 487.373C116.272 486.962 133.596 481.202 150.921 479.803C168.245 478.487 185.57 481.449 202.894 480.791C220.219 480.132 237.543 475.689 254.868 477.335C272.192 478.98 289.517 486.715 306.841 486.962C324.166 487.208 341.49 480.132 358.815 479.803C376.139 479.556 393.464 486.139 410.788 486.797C428.113 487.537 445.437 482.272 462.762 482.025C480.087 481.778 497.411 486.386 506.073 488.772L514.736 491.076V510H506.073C497.411 510 480.087 510 462.762 510C445.437 510 428.113 510 410.788 510C393.464 510 376.139 510 358.815 510C341.49 510 324.166 510 306.841 510C289.517 510 272.192 510 254.868 510C237.543 510 220.219 510 202.894 510C185.57 510 168.245 510 150.921 510C133.596 510 116.272 510 98.9471 510C81.6226 510 64.2981 510 46.9736 510C29.649 510 12.3245 510 3.66226 510H-5V489.43Z" fill="#89C5FA"/>
</g>
<defs>
<clipPath id="clip0_122_3">
<rect width="510" height="510" rx="8" fill="white"/>
</clipPath>
</defs>
</svg>
